<svg width="64" height="64" viewBox="0 0 64 64" fill="none" xmlns="http://www.w3.org/2000/svg">
<rect width="64" height="64" rx="16" fill="#F7F7FF"/>
<mask id="mask0_10587_161142" style="mask-type:alpha" maskUnits="userSpaceOnUse" x="16" y="16" width="32" height="32">
<rect x="16" y="16" width="32" height="32" fill="#D9D9D9"/>
</mask>
<g mask="url(#mask0_10587_161142)">
<path d="M30.1333 37.4L39.5333 28L37.6667 26.1333L30.1333 33.6667L26.3333 29.8667L24.4667 31.7333L30.1333 37.4ZM22.6667 44C21.9333 44 21.3053 43.7391 20.7827 43.2173C20.2609 42.6947 20 42.0667 20 41.3333V22.6667C20 21.9333 20.2609 21.3053 20.7827 20.7827C21.3053 20.2609 21.9333 20 22.6667 20H28.2667C28.5556 19.2 29.0391 18.5556 29.7173 18.0667C30.3947 17.5778 31.1556 17.3333 32 17.3333C32.8444 17.3333 33.6058 17.5778 34.284 18.0667C34.9613 18.5556 35.4444 19.2 35.7333 20H41.3333C42.0667 20 42.6947 20.2609 43.2173 20.7827C43.7391 21.3053 44 21.9333 44 22.6667V41.3333C44 42.0667 43.7391 42.6947 43.2173 43.2173C42.6947 43.7391 42.0667 44 41.3333 44H22.6667ZM22.6667 41.3333H41.3333V22.6667H22.6667V41.3333ZM32 21.6667C32.2889 21.6667 32.528 21.572 32.7173 21.3827C32.9058 21.1942 33 20.9556 33 20.6667C33 20.3778 32.9058 20.1387 32.7173 19.9493C32.528 19.7609 32.2889 19.6667 32 19.6667C31.7111 19.6667 31.4724 19.7609 31.284 19.9493C31.0947 20.1387 31 20.3778 31 20.6667C31 20.9556 31.0947 21.1942 31.284 21.3827C31.4724 21.572 31.7111 21.6667 32 21.6667Z" fill="#6E71CC"/>
</g>
</svg>
