<svg width="64" height="64" viewBox="0 0 64 64" fill="none" xmlns="http://www.w3.org/2000/svg">
<rect width="64" height="64" rx="16" fill="#F7F7FF"/>
<mask id="mask0_10587_161150" style="mask-type:alpha" maskUnits="userSpaceOnUse" x="16" y="16" width="32" height="32">
<rect x="16" y="16" width="32" height="32" fill="#D9D9D9"/>
</mask>
<g mask="url(#mask0_10587_161150)">
<path d="M18.667 42.6667V38.9333C18.667 38.2 18.8559 37.5111 19.2337 36.8667C19.6114 36.2222 20.1337 35.7333 20.8003 35.4C21.9337 34.8222 23.2114 34.3333 24.6337 33.9333C26.0559 33.5333 27.6225 33.3333 29.3337 33.3333C30.0003 33.3333 30.6505 33.3667 31.2843 33.4333C31.9172 33.5 32.5337 33.6 33.1337 33.7333L30.8003 36.0667C30.5559 36.0222 30.3168 36 30.083 36H29.3337C27.7559 36 26.339 36.1889 25.083 36.5667C23.8279 36.9444 22.8003 37.3556 22.0003 37.8C21.8003 37.9111 21.6394 38.0667 21.5177 38.2667C21.395 38.4667 21.3337 38.6889 21.3337 38.9333V40H29.667L32.3337 42.6667H18.667ZM36.7337 43.2L32.1337 38.6L34.0003 36.7333L36.7337 39.4667L43.467 32.7333L45.3337 34.6L36.7337 43.2ZM29.3337 32C27.867 32 26.6114 31.4778 25.567 30.4333C24.5225 29.3889 24.0003 28.1333 24.0003 26.6667C24.0003 25.2 24.5225 23.9444 25.567 22.9C26.6114 21.8556 27.867 21.3333 29.3337 21.3333C30.8003 21.3333 32.0559 21.8556 33.1003 22.9C34.1448 23.9444 34.667 25.2 34.667 26.6667C34.667 28.1333 34.1448 29.3889 33.1003 30.4333C32.0559 31.4778 30.8003 32 29.3337 32ZM29.3337 29.3333C30.067 29.3333 30.695 29.072 31.2177 28.5493C31.7394 28.0276 32.0003 27.4 32.0003 26.6667C32.0003 25.9333 31.7394 25.3058 31.2177 24.784C30.695 24.2613 30.067 24 29.3337 24C28.6003 24 27.9728 24.2613 27.451 24.784C26.9283 25.3058 26.667 25.9333 26.667 26.6667C26.667 27.4 26.9283 28.0276 27.451 28.5493C27.9728 29.072 28.6003 29.3333 29.3337 29.3333Z" fill="#6E71CC"/>
</g>
</svg>
