<svg width="64" height="64" viewBox="0 0 64 64" fill="none" xmlns="http://www.w3.org/2000/svg">
<rect width="64" height="64" rx="16" fill="#F7F7FF"/>
<mask id="mask0_10587_161158" style="mask-type:alpha" maskUnits="userSpaceOnUse" x="16" y="16" width="32" height="32">
<rect x="16" y="16" width="32" height="32" fill="#D9D9D9"/>
</mask>
<g mask="url(#mask0_10587_161158)">
<path d="M16 40V37.9C16 36.9222 16.4947 36.1387 17.484 35.5493C18.4724 34.9609 19.7556 34.6667 21.3333 34.6667C21.6222 34.6667 21.9 34.672 22.1667 34.6827C22.4333 34.6942 22.6889 34.7222 22.9333 34.7667C22.6222 35.2111 22.3889 35.6889 22.2333 36.2C22.0778 36.7111 22 37.2556 22 37.8333V40H16ZM24 40V37.8333C24 36.3889 24.7391 35.2222 26.2173 34.3333C27.6947 33.4444 29.6222 33 32 33C34.4 33 36.3333 33.4444 37.8 34.3333C39.2667 35.2222 40 36.3889 40 37.8333V40H24ZM42 40V37.8333C42 37.2556 41.9276 36.7111 41.7827 36.2C41.6387 35.6889 41.4222 35.2111 41.1333 34.7667C41.3778 34.7222 41.628 34.6942 41.884 34.6827C42.1391 34.672 42.4 34.6667 42.6667 34.6667C44.2667 34.6667 45.5556 34.9609 46.5333 35.5493C47.5111 36.1387 48 36.9222 48 37.9V40H42ZM32 35.6667C30.7333 35.6667 29.6 35.8333 28.6 36.1667C27.6 36.5 27.0111 36.8889 26.8333 37.3333H37.2C37 36.8889 36.4053 36.5 35.416 36.1667C34.4276 35.8333 33.2889 35.6667 32 35.6667ZM21.3333 33.3333C20.6 33.3333 19.9724 33.072 19.4507 32.5493C18.928 32.0276 18.6667 31.4 18.6667 30.6667C18.6667 29.9111 18.928 29.2778 19.4507 28.7667C19.9724 28.2556 20.6 28 21.3333 28C22.0889 28 22.7222 28.2556 23.2333 28.7667C23.7444 29.2778 24 29.9111 24 30.6667C24 31.4 23.7444 32.0276 23.2333 32.5493C22.7222 33.072 22.0889 33.3333 21.3333 33.3333ZM42.6667 33.3333C41.9333 33.3333 41.3053 33.072 40.7827 32.5493C40.2609 32.0276 40 31.4 40 30.6667C40 29.9111 40.2609 29.2778 40.7827 28.7667C41.3053 28.2556 41.9333 28 42.6667 28C43.4222 28 44.0556 28.2556 44.5667 28.7667C45.0778 29.2778 45.3333 29.9111 45.3333 30.6667C45.3333 31.4 45.0778 32.0276 44.5667 32.5493C44.0556 33.072 43.4222 33.3333 42.6667 33.3333ZM32 32C30.8889 32 29.9444 31.6111 29.1667 30.8333C28.3889 30.0556 28 29.1111 28 28C28 26.8667 28.3889 25.9164 29.1667 25.1493C29.9444 24.3831 30.8889 24 32 24C33.1333 24 34.0831 24.3831 34.8493 25.1493C35.6164 25.9164 36 26.8667 36 28C36 29.1111 35.6164 30.0556 34.8493 30.8333C34.0831 31.6111 33.1333 32 32 32ZM32 26.6667C31.6222 26.6667 31.3058 26.7942 31.0507 27.0493C30.7947 27.3053 30.6667 27.6222 30.6667 28C30.6667 28.3778 30.7947 28.6942 31.0507 28.9493C31.3058 29.2053 31.6222 29.3333 32 29.3333C32.3778 29.3333 32.6947 29.2053 32.9507 28.9493C33.2058 28.6942 33.3333 28.3778 33.3333 28C33.3333 27.6222 33.2058 27.3053 32.9507 27.0493C32.6947 26.7942 32.3778 26.6667 32 26.6667Z" fill="#6E71CC"/>
</g>
</svg>
