<svg width="64" height="64" viewBox="0 0 64 64" fill="none" xmlns="http://www.w3.org/2000/svg">
<rect width="64" height="64" rx="16" fill="#F7F7FF"/>
<mask id="mask0_10587_161164" style="mask-type:alpha" maskUnits="userSpaceOnUse" x="16" y="16" width="32" height="32">
<rect x="16" y="16" width="32" height="32" fill="#D9D9D9"/>
</mask>
<g mask="url(#mask0_10587_161164)">
<path d="M22.6667 45.3333C21.9333 45.3333 21.3053 45.0724 20.7827 44.5507C20.2609 44.028 20 43.4 20 42.6667V24C20 23.2667 20.2609 22.6391 20.7827 22.1173C21.3053 21.5947 21.9333 21.3333 22.6667 21.3333H24V18.6667H26.6667V21.3333H37.3333V18.6667H40V21.3333H41.3333C42.0667 21.3333 42.6947 21.5947 43.2173 22.1173C43.7391 22.6391 44 23.2667 44 24V42.6667C44 43.4 43.7391 44.028 43.2173 44.5507C42.6947 45.0724 42.0667 45.3333 41.3333 45.3333H22.6667ZM22.6667 42.6667H41.3333V29.3333H22.6667V42.6667ZM22.6667 26.6667H41.3333V24H22.6667V26.6667ZM32 34.6667C31.6222 34.6667 31.3058 34.5387 31.0507 34.2827C30.7947 34.0276 30.6667 33.7111 30.6667 33.3333C30.6667 32.9556 30.7947 32.6387 31.0507 32.3827C31.3058 32.1276 31.6222 32 32 32C32.3778 32 32.6947 32.1276 32.9507 32.3827C33.2058 32.6387 33.3333 32.9556 33.3333 33.3333C33.3333 33.7111 33.2058 34.0276 32.9507 34.2827C32.6947 34.5387 32.3778 34.6667 32 34.6667ZM26.6667 34.6667C26.2889 34.6667 25.972 34.5387 25.716 34.2827C25.4609 34.0276 25.3333 33.7111 25.3333 33.3333C25.3333 32.9556 25.4609 32.6387 25.716 32.3827C25.972 32.1276 26.2889 32 26.6667 32C27.0444 32 27.3613 32.1276 27.6173 32.3827C27.8724 32.6387 28 32.9556 28 33.3333C28 33.7111 27.8724 34.0276 27.6173 34.2827C27.3613 34.5387 27.0444 34.6667 26.6667 34.6667ZM37.3333 34.6667C36.9556 34.6667 36.6391 34.5387 36.384 34.2827C36.128 34.0276 36 33.7111 36 33.3333C36 32.9556 36.128 32.6387 36.384 32.3827C36.6391 32.1276 36.9556 32 37.3333 32C37.7111 32 38.0276 32.1276 38.2827 32.3827C38.5387 32.6387 38.6667 32.9556 38.6667 33.3333C38.6667 33.7111 38.5387 34.0276 38.2827 34.2827C38.0276 34.5387 37.7111 34.6667 37.3333 34.6667ZM32 40C31.6222 40 31.3058 39.872 31.0507 39.616C30.7947 39.3609 30.6667 39.0444 30.6667 38.6667C30.6667 38.2889 30.7947 37.9724 31.0507 37.7173C31.3058 37.4613 31.6222 37.3333 32 37.3333C32.3778 37.3333 32.6947 37.4613 32.9507 37.7173C33.2058 37.9724 33.3333 38.2889 33.3333 38.6667C33.3333 39.0444 33.2058 39.3609 32.9507 39.616C32.6947 39.872 32.3778 40 32 40ZM26.6667 40C26.2889 40 25.972 39.872 25.716 39.616C25.4609 39.3609 25.3333 39.0444 25.3333 38.6667C25.3333 38.2889 25.4609 37.9724 25.716 37.7173C25.972 37.4613 26.2889 37.3333 26.6667 37.3333C27.0444 37.3333 27.3613 37.4613 27.6173 37.7173C27.8724 37.9724 28 38.2889 28 38.6667C28 39.0444 27.8724 39.3609 27.6173 39.616C27.3613 39.872 27.0444 40 26.6667 40ZM37.3333 40C36.9556 40 36.6391 39.872 36.384 39.616C36.128 39.3609 36 39.0444 36 38.6667C36 38.2889 36.128 37.9724 36.384 37.7173C36.6391 37.4613 36.9556 37.3333 37.3333 37.3333C37.7111 37.3333 38.0276 37.4613 38.2827 37.7173C38.5387 37.9724 38.6667 38.2889 38.6667 38.6667C38.6667 39.0444 38.5387 39.3609 38.2827 39.616C38.0276 39.872 37.7111 40 37.3333 40Z" fill="#6E71CC"/>
</g>
</svg>
